<svg width="34" height="34" viewBox="0 0 34 34" fill="none" xmlns="http://www.w3.org/2000/svg">
<path d="M17 0.333336C7.80001 0.333336 0.333344 7.8 0.333344 17C0.333344 26.2 7.80001 33.6667 17 33.6667C26.2 33.6667 33.6667 26.2 33.6667 17C33.6667 7.8 26.2 0.333336 17 0.333336ZM24.7333 11.6667C24.4833 14.3 23.4 20.7 22.85 23.65C22.6167 24.9 22.15 25.3167 21.7167 25.3667C20.75 25.45 20.0167 24.7333 19.0833 24.1167C17.6167 23.15 16.7833 22.55 15.3667 21.6167C13.7167 20.5333 14.7833 19.9333 15.7333 18.9667C15.9833 18.7167 20.25 14.8333 20.3333 14.4833C20.3449 14.4303 20.3434 14.3753 20.3289 14.323C20.3143 14.2707 20.2873 14.2228 20.25 14.1833C20.15 14.1 20.0167 14.1333 19.9 14.15C19.75 14.1833 17.4167 15.7333 12.8667 18.8C12.2 19.25 11.6 19.4833 11.0667 19.4667C10.4667 19.45 9.33334 19.1333 8.48334 18.85C7.43334 18.5167 6.61668 18.3333 6.68334 17.75C6.71668 17.45 7.13334 17.15 7.91668 16.8333C12.7833 14.7167 16.0167 13.3167 17.6333 12.65C22.2667 10.7167 23.2167 10.3833 23.85 10.3833C23.9833 10.3833 24.3 10.4167 24.5 10.5833C24.6667 10.7167 24.7167 10.9 24.7333 11.0333C24.7167 11.1333 24.75 11.4333 24.7333 11.6667Z" fill="white"/>
</svg>
